<svg xmlns="http://www.w3.org/2000/svg" xmlns:xlink="http://www.w3.org/1999/xlink" width="99" height="97" viewBox="0 0 99 97">
  <defs>
    <filter id="Rectangle_2" x="0" y="0" width="99" height="97" filterUnits="userSpaceOnUse">
      <feOffset dy="3" input="SourceAlpha"/>
      <feGaussianBlur stdDeviation="3" result="blur"/>
      <feFlood flood-opacity="0.161"/>
      <feComposite operator="in" in2="blur"/>
      <feComposite in="SourceGraphic"/>
    </filter>
  </defs>
  <g id="Group_5" data-name="Group 5" transform="translate(-1039 -761)">
    <g transform="matrix(1, 0, 0, 1, 1039, 761)" filter="url(#Rectangle_2)">
      <rect id="Rectangle_2-2" data-name="Rectangle 2" width="81" height="79" rx="39.5" transform="translate(9 6)" fill="#09af00"/>
    </g>
    <g id="thumb_up-24px" transform="translate(1076.5 795)">
      <path id="Path_4" data-name="Path 4" d="M0,0H24V24H0Z" fill="none"/>
      <path id="Path_5" data-name="Path 5" d="M1,21H5V9H1ZM23,10a2.006,2.006,0,0,0-2-2H14.69l.95-4.57.03-.32a1.505,1.505,0,0,0-.44-1.06L14.17,1,7.59,7.59A1.955,1.955,0,0,0,7,9V19a2.006,2.006,0,0,0,2,2h9a1.987,1.987,0,0,0,1.84-1.22l3.02-7.05A1.976,1.976,0,0,0,23,12Z" fill="#fffdf5"/>
    </g>
  </g>
</svg>
